<?xml version="1.0" encoding="UTF-8" standalone="no"?>
<!DOCTYPE svg PUBLIC "-//W3C//DTD SVG 1.1//EN" "http://www.w3.org/Graphics/SVG/1.1/DTD/svg11.dtd">
<svg width="100%" height="100%" viewBox="0 0 1706 1804" version="1.1" xmlns="http://www.w3.org/2000/svg" xmlns:xlink="http://www.w3.org/1999/xlink" xml:space="preserve" style="fill-rule:evenodd;clip-rule:evenodd;stroke-linejoin:round;stroke-miterlimit:1.41421;">
    <g transform="matrix(4.16667,0,0,4.16667,-347.368,-615.979)">
        <path d="M331.445,309.85C436.852,307.105 487.39,329.976 488.879,374.991C503.748,318.586 474.72,274.175 421.427,267.584C378.71,262.3 347.205,260.943 282.35,264.871C260.711,266.182 255.504,285.686 268.392,300.011C280.519,313.489 315.203,350.37 315.203,350.37C299.166,328.876 313.032,310.329 331.445,309.85" style="fill:rgb(46,80,135);"/>
        <path d="M454.597,421.206C477.38,407.939 493.268,381.612 473.129,355.77C449.399,327.657 389.074,324.071 343.003,323.061C323.904,322.642 314.46,332.499 324.829,347.665C330.426,355.852 333.931,359.592 344.079,373.074C339.215,357.219 342.321,349.626 355.836,349.18C382.038,350.041 393.981,351.246 412.502,354.749C436.091,359.211 439.247,377.909 421.817,393.014C388,422.322 323.432,476.616 301.801,492.841C301.801,492.841 413.621,445.196 454.597,421.206" style="fill:rgb(46,80,135);"/>
        <path d="M254.943,447.939C204.318,540.434 159.138,572.621 119.478,551.274C160.759,592.487 213.744,589.725 246.236,546.972C272.281,512.702 289.295,486.153 318.508,428.115C328.255,408.752 314.013,394.444 295.151,398.383C277.403,402.089 228.084,413.526 228.084,413.526C254.726,410.471 263.786,431.781 254.943,447.939" style="fill:rgb(46,80,135);"/>
        <path d="M96.767,498.404C96.78,524.768 111.549,551.739 144.013,547.324C180.245,540.946 213.675,490.604 237.713,451.287C247.677,434.989 243.906,421.87 225.583,423.207C215.691,423.929 210.697,425.078 193.94,427.072C210.091,430.839 215.092,437.341 208.683,449.248C194.765,471.464 187.718,481.182 175.378,495.43C159.661,513.578 141.911,506.904 137.617,484.244C129.287,440.276 114.818,357.164 111.669,330.309C111.669,330.309 96.632,450.923 96.767,498.404" style="fill:rgb(46,80,135);"/>
        <path d="M172.424,318.699C117.376,228.767 111.932,173.562 150.181,149.779C93.892,165.084 69.928,212.42 90.849,261.876C107.619,301.518 122.185,329.486 157.996,383.701C169.944,401.79 189.441,396.554 195.408,378.232C201.023,360.993 215.639,312.521 215.639,312.521C205.034,337.152 182.04,334.409 172.424,318.699" style="fill:rgb(46,80,135);"/>
        <path d="M207.342,156.381C184.466,143.276 153.722,142.669 141.401,173.027C128.907,207.629 155.945,261.675 178.091,302.086C187.272,318.839 200.529,322.095 208.485,305.535C212.78,296.595 214.268,291.691 220.874,276.163C209.571,288.299 201.443,289.403 194.303,277.919C181.956,254.793 177.032,243.845 170.811,226.052C162.889,203.39 177.509,191.313 199.302,198.862C241.586,213.51 320.881,242.309 345.743,252.938C345.743,252.938 248.597,179.887 207.342,156.381" style="fill:rgb(46,80,135);"/>
    </g>
</svg>
